<svg width="266" height="229" viewBox="0 0 266 229" fill="none" xmlns="http://www.w3.org/2000/svg">
<path d="M145 50.9976V85.7496C145 88.4304 141.936 89.7708 140.138 87.8719L97.6177 43.0162C97.4971 42.8851 97.3503 42.7803 97.1868 42.7087C97.0232 42.637 96.8465 42.6 96.6677 42.6C96.489 42.6 96.3122 42.637 96.1487 42.7087C95.9851 42.7803 95.8383 42.8851 95.7178 43.0162L53.1943 87.8719C51.4135 89.7708 48.3491 88.4304 48.3491 85.7496V50.9976C48.3462 50.2106 48.6444 49.4519 49.1833 48.8754L94.6554 0.888762C94.9121 0.612373 95.2235 0.391805 95.5701 0.240947C95.9168 0.0900883 96.291 0.012207 96.6694 0.012207C97.0478 0.012207 97.4221 0.0900883 97.7687 0.240947C98.1153 0.391805 98.4267 0.612373 98.6834 0.888762L144.166 48.8754C144.706 49.4511 145.004 50.2103 145 50.9976Z" fill="#BDFF00"/>
<path d="M68.8296 20.3887L50.3479 0.892135C50.0925 0.611253 49.7807 0.386731 49.4327 0.233064C49.0846 0.0793965 48.708 0 48.3271 0C47.9463 0 47.5696 0.0793965 47.2216 0.233064C46.8735 0.386731 46.5617 0.611253 46.3063 0.892135L0.834219 48.872C0.295055 49.4497 -0.00313282 50.2096 2.48242e-05 50.9976V85.7496C2.48242e-05 88.427 3.06441 89.7674 4.86219 87.8753L68.8296 20.3887Z" fill="#BDFF00"/>
<path d="M96.6679 50.9976V85.7496C96.6679 88.4304 93.6035 89.7708 91.8057 87.8719L76.1943 71.4047L96.501 49.9822C96.612 50.3093 96.6684 50.6524 96.6679 50.9976Z" fill="#BDFF00"/>
<path d="M0 167.822V124.202H15.84L21.36 148.382L22.89 155.852H23.01L24.57 148.382L30 124.202H45.9V167.822H36.57V145.772L37.5 131.672H37.2L33.15 145.682L26.85 167.822H19.14L8.7 131.672H8.4L9.33 145.772V167.822H0Z" fill="white"/>
<path d="M61.9448 168.182C60.0848 168.182 58.3948 167.832 56.8748 167.132C55.3748 166.432 54.1848 165.402 53.3048 164.042C52.4248 162.682 51.9848 161.012 51.9848 159.032C51.9848 157.052 52.3848 155.422 53.1848 154.142C54.0048 152.862 55.1148 151.862 56.5148 151.142C57.9148 150.402 59.4948 149.852 61.2548 149.492C62.4348 149.252 63.6448 149.052 64.8848 148.892C66.1448 148.732 67.3248 148.602 68.4248 148.502C69.5448 148.402 70.4948 148.322 71.2748 148.262V147.362C71.2748 145.282 70.9248 143.822 70.2248 142.982C69.5448 142.142 68.3448 141.722 66.6248 141.722C65.5248 141.722 64.5948 141.872 63.8348 142.172C63.0948 142.472 62.5348 143.012 62.1548 143.792C61.7948 144.572 61.6248 145.682 61.6448 147.122H52.8248C52.5848 144.242 53.0348 141.872 54.1748 140.012C55.3148 138.132 56.9848 136.742 59.1848 135.842C61.3848 134.922 63.9648 134.462 66.9248 134.462C68.6448 134.462 70.3148 134.652 71.9348 135.032C73.5548 135.392 75.0048 136.022 76.2848 136.922C77.5648 137.802 78.5748 139.012 79.3148 140.552C80.0748 142.092 80.4548 144.042 80.4548 146.402V167.822H71.2148L71.2748 160.172C70.9148 162.372 70.0148 164.262 68.5748 165.842C67.1548 167.402 64.9448 168.182 61.9448 168.182ZM65.0348 162.002C66.0148 162.002 66.9448 161.822 67.8248 161.462C68.7248 161.082 69.4848 160.572 70.1048 159.932C70.7248 159.272 71.1148 158.542 71.2748 157.742V152.582C70.4748 152.702 69.6648 152.832 68.8448 152.972C68.0248 153.112 67.3048 153.262 66.6848 153.422C64.6848 153.862 63.3148 154.472 62.5748 155.252C61.8348 156.012 61.4648 157.012 61.4648 158.252C61.4648 159.032 61.5948 159.702 61.8548 160.262C62.1348 160.822 62.5448 161.252 63.0848 161.552C63.6248 161.852 64.2748 162.002 65.0348 162.002Z" fill="white"/>
<path d="M87.7692 167.822V135.062H96.1092L96.8892 147.902L96.3492 145.952C96.5292 144.232 96.8592 142.672 97.3392 141.272C97.8192 139.852 98.4392 138.632 99.1992 137.612C99.9592 136.592 100.869 135.802 101.929 135.242C103.009 134.682 104.239 134.402 105.619 134.402C106.019 134.402 106.419 134.422 106.819 134.462C107.239 134.502 107.609 134.572 107.929 134.672V144.362C107.249 144.182 106.589 144.062 105.949 144.002C105.329 143.922 104.709 143.882 104.089 143.882C102.989 143.882 101.989 143.982 101.089 144.182C100.209 144.382 99.4392 144.692 98.7792 145.112C98.1192 145.512 97.5692 146.032 97.1292 146.672V167.822H87.7692Z" fill="white"/>
<path d="M126.943 181.292C123.703 181.332 120.943 180.842 118.663 179.822C116.383 178.822 114.683 177.402 113.563 175.562C112.463 173.722 112.053 171.612 112.333 169.232H121.393C121.373 170.132 121.523 170.932 121.843 171.632C122.163 172.352 122.743 172.922 123.583 173.342C124.423 173.762 125.603 173.972 127.123 173.972C128.523 173.972 129.603 173.762 130.363 173.342C131.143 172.942 131.693 172.332 132.013 171.512C132.333 170.692 132.493 169.672 132.493 168.452V159.242C132.213 160.982 131.693 162.412 130.933 163.532C130.193 164.652 129.223 165.492 128.023 166.052C126.823 166.592 125.393 166.862 123.733 166.862C121.753 166.862 119.993 166.452 118.453 165.632C116.933 164.812 115.633 163.682 114.553 162.242C113.493 160.782 112.683 159.102 112.123 157.202C111.583 155.282 111.313 153.232 111.313 151.052C111.313 147.512 111.853 144.512 112.933 142.052C114.033 139.572 115.533 137.692 117.433 136.412C119.353 135.112 121.543 134.462 124.003 134.462C125.583 134.462 126.943 134.692 128.083 135.152C129.243 135.612 130.203 136.232 130.963 137.012C131.723 137.772 132.273 138.622 132.613 139.562L132.943 135.092H141.763V167.582C141.763 170.502 141.203 172.972 140.083 174.992C138.963 177.012 137.303 178.552 135.103 179.612C132.923 180.672 130.203 181.232 126.943 181.292ZM126.823 159.242C127.843 159.242 128.733 159.132 129.493 158.912C130.273 158.672 130.913 158.362 131.413 157.982C131.913 157.582 132.273 157.162 132.493 156.722V145.382C132.293 144.762 131.953 144.212 131.473 143.732C130.993 143.252 130.373 142.872 129.613 142.592C128.873 142.292 128.013 142.142 127.033 142.142C125.033 142.142 123.473 142.872 122.353 144.332C121.233 145.792 120.673 148.022 120.673 151.022C120.673 153.622 121.183 155.642 122.203 157.082C123.223 158.522 124.763 159.242 126.823 159.242Z" fill="white"/>
<path d="M149.378 167.822V135.062H158.678V167.822H149.378ZM154.058 131.342C152.498 131.342 151.168 130.802 150.068 129.722C148.968 128.622 148.418 127.222 148.418 125.522C148.418 123.822 148.968 122.442 150.068 121.382C151.168 120.302 152.498 119.762 154.058 119.762C155.598 119.762 156.918 120.302 158.018 121.382C159.118 122.442 159.668 123.822 159.668 125.522C159.668 127.222 159.118 128.622 158.018 129.722C156.918 130.802 155.598 131.342 154.058 131.342Z" fill="white"/>
<path d="M166.343 167.822V135.062H174.683L175.463 147.422L175.103 144.932C175.343 143.132 175.813 141.432 176.513 139.832C177.213 138.212 178.253 136.902 179.633 135.902C181.033 134.902 182.883 134.402 185.183 134.402C188.163 134.402 190.553 135.372 192.353 137.312C194.173 139.232 195.083 142.172 195.083 146.132V167.822H185.753V149.612C185.753 147.532 185.573 145.952 185.213 144.872C184.853 143.772 184.343 143.022 183.683 142.622C183.023 142.222 182.243 142.022 181.343 142.022C180.063 142.022 178.933 142.432 177.953 143.252C176.973 144.052 176.223 145.002 175.703 146.102V167.822H166.343Z" fill="white"/>
<path d="M216.436 168.272C213.116 168.272 210.286 167.612 207.946 166.292C205.606 164.972 203.816 163.062 202.576 160.562C201.336 158.042 200.716 155.002 200.716 151.442C200.716 147.762 201.376 144.662 202.696 142.142C204.016 139.602 205.876 137.682 208.276 136.382C210.676 135.082 213.486 134.432 216.706 134.432C219.826 134.432 222.446 135.022 224.566 136.202C226.706 137.382 228.326 139.122 229.426 141.422C230.526 143.722 231.076 146.552 231.076 149.912C231.076 150.332 231.056 150.822 231.016 151.382C230.996 151.922 230.966 152.542 230.926 153.242H209.866C210.086 155.962 210.746 157.952 211.846 159.212C212.946 160.452 214.486 161.072 216.466 161.072C218.106 161.072 219.346 160.712 220.186 159.992C221.046 159.272 221.556 158.322 221.716 157.142H230.656C230.476 159.402 229.786 161.372 228.586 163.052C227.406 164.712 225.786 166.002 223.726 166.922C221.666 167.822 219.236 168.272 216.436 168.272ZM213.676 147.992H222.106C222.026 145.892 221.516 144.322 220.576 143.282C219.656 142.242 218.236 141.722 216.316 141.722C214.056 141.722 212.406 142.532 211.366 144.152C210.326 145.752 209.796 148.032 209.776 150.992C209.936 149.852 210.326 149.072 210.946 148.652C211.566 148.212 212.476 147.992 213.676 147.992Z" fill="white"/>
<path d="M247.802 168.212C245.242 168.212 243.042 167.522 241.202 166.142C239.362 164.742 237.952 162.772 236.972 160.232C236.012 157.692 235.532 154.712 235.532 151.292C235.532 147.752 236.072 144.732 237.152 142.232C238.232 139.712 239.742 137.792 241.682 136.472C243.622 135.132 245.862 134.462 248.402 134.462C250.042 134.462 251.452 134.742 252.632 135.302C253.832 135.862 254.802 136.612 255.542 137.552C256.282 138.492 256.772 139.522 257.012 140.642L258.092 143.702L256.622 145.832C256.422 145.072 256.082 144.422 255.602 143.882C255.142 143.322 254.542 142.892 253.802 142.592C253.082 142.292 252.222 142.142 251.222 142.142C249.202 142.142 247.632 142.912 246.512 144.452C245.412 145.972 244.862 148.312 244.862 151.472C244.862 154.492 245.392 156.762 246.452 158.282C247.532 159.802 249.092 160.562 251.132 160.562C252.112 160.562 252.992 160.422 253.772 160.142C254.572 159.842 255.222 159.482 255.722 159.062C256.222 158.622 256.522 158.192 256.622 157.772L256.982 158.162L256.622 160.142C256.342 161.342 255.962 162.442 255.482 163.442C255.002 164.422 254.412 165.272 253.712 165.992C253.012 166.692 252.172 167.242 251.192 167.642C250.232 168.022 249.102 168.212 247.802 168.212ZM256.652 167.822L256.622 121.142H265.922V167.822H256.652Z" fill="white"/>
<path d="M13.05 213.332C11.77 213.332 10.8 213.002 10.14 212.342C9.5 211.662 9.06 210.612 8.82 209.192L7.41 207.272L9.51 205.562H14.49C16.13 205.562 17.49 205.322 18.57 204.842C19.65 204.362 20.46 203.612 21 202.592C21.54 201.552 21.81 200.202 21.81 198.542C21.81 195.982 21.16 194.262 19.86 193.382C18.58 192.502 16.75 192.062 14.37 192.062H9.33L6.75 184.202C7.53 184.202 8.46 184.202 9.54 184.202C10.64 184.202 11.72 184.202 12.78 184.202C13.86 184.202 14.74 184.202 15.42 184.202C20.7 184.202 24.71 185.312 27.45 187.532C30.21 189.752 31.59 193.262 31.59 198.062C31.59 200.082 31.3 202.012 30.72 203.852C30.16 205.672 29.25 207.302 27.99 208.742C26.73 210.162 25.07 211.282 23.01 212.102C20.97 212.922 18.46 213.332 15.48 213.332H13.05ZM0 227.822V184.202H9.51V227.822H0Z" fill="white"/>
<path d="M36.3825 227.822V195.062H44.7225L45.5025 207.902L44.9625 205.952C45.1425 204.232 45.4725 202.672 45.9525 201.272C46.4325 199.852 47.0525 198.632 47.8125 197.612C48.5725 196.592 49.4825 195.802 50.5425 195.242C51.6225 194.682 52.8525 194.402 54.2325 194.402C54.6325 194.402 55.0325 194.422 55.4325 194.462C55.8525 194.502 56.2225 194.572 56.5425 194.672V204.362C55.8625 204.182 55.2025 204.062 54.5625 204.002C53.9425 203.922 53.3225 203.882 52.7025 203.882C51.6025 203.882 50.6025 203.982 49.7025 204.182C48.8225 204.382 48.0525 204.692 47.3925 205.112C46.7325 205.512 46.1825 206.032 45.7425 206.672V227.822H36.3825Z" fill="white"/>
<path d="M75.435 228.272C72.255 228.272 69.495 227.622 67.155 226.322C64.815 225.022 62.995 223.112 61.695 220.592C60.415 218.052 59.775 214.942 59.775 211.262C59.775 207.782 60.455 204.782 61.815 202.262C63.175 199.742 65.045 197.812 67.425 196.472C69.805 195.112 72.515 194.432 75.555 194.432C78.835 194.432 81.635 195.112 83.955 196.472C86.295 197.812 88.085 199.742 89.325 202.262C90.585 204.782 91.215 207.782 91.215 211.262C91.215 214.942 90.525 218.052 89.145 220.592C87.765 223.112 85.885 225.022 83.505 226.322C81.125 227.622 78.435 228.272 75.435 228.272ZM75.555 220.562C77.375 220.562 78.895 219.892 80.115 218.552C81.335 217.192 81.945 214.762 81.945 211.262C81.945 208.002 81.305 205.672 80.025 204.272C78.765 202.852 77.245 202.142 75.465 202.142C73.645 202.142 72.125 202.852 70.905 204.272C69.685 205.672 69.075 208.002 69.075 211.262C69.075 214.622 69.715 217.012 70.995 218.432C72.275 219.852 73.795 220.562 75.555 220.562Z" fill="white"/>
<path d="M106.991 228.212C104.291 228.212 102.181 227.532 100.661 226.172C99.1612 224.792 98.4112 222.662 98.4112 219.782L98.3213 205.142C98.3213 204.382 98.5312 203.762 98.9512 203.282C99.3913 202.802 100.001 202.492 100.781 202.352L98.3213 196.382V195.392L100.031 185.702H107.621V216.902C107.621 218.302 107.791 219.272 108.131 219.812C108.491 220.352 109.171 220.622 110.171 220.622C111.171 220.622 112.001 220.602 112.661 220.562C113.341 220.522 113.981 220.452 114.581 220.352V227.702C113.861 227.962 112.781 228.112 111.341 228.152C109.921 228.192 108.471 228.212 106.991 228.212ZM94.8412 202.352V195.062H114.371V202.352H94.8412Z" fill="white"/>
<path d="M133.443 228.272C130.263 228.272 127.503 227.622 125.163 226.322C122.823 225.022 121.003 223.112 119.703 220.592C118.423 218.052 117.783 214.942 117.783 211.262C117.783 207.782 118.463 204.782 119.823 202.262C121.183 199.742 123.053 197.812 125.433 196.472C127.813 195.112 130.523 194.432 133.563 194.432C136.843 194.432 139.643 195.112 141.963 196.472C144.303 197.812 146.093 199.742 147.333 202.262C148.593 204.782 149.223 207.782 149.223 211.262C149.223 214.942 148.533 218.052 147.153 220.592C145.773 223.112 143.893 225.022 141.513 226.322C139.133 227.622 136.443 228.272 133.443 228.272ZM133.563 220.562C135.383 220.562 136.903 219.892 138.123 218.552C139.343 217.192 139.953 214.762 139.953 211.262C139.953 208.002 139.313 205.672 138.033 204.272C136.773 202.852 135.253 202.142 133.473 202.142C131.653 202.142 130.133 202.852 128.913 204.272C127.693 205.672 127.083 208.002 127.083 211.262C127.083 214.622 127.723 217.012 129.003 218.432C130.283 219.852 131.803 220.562 133.563 220.562Z" fill="white"/>
<path d="M168.891 228.392C165.451 228.392 162.571 227.682 160.251 226.262C157.951 224.822 156.211 222.822 155.031 220.262C153.871 217.682 153.291 214.692 153.291 211.292C153.291 207.812 153.891 204.812 155.091 202.292C156.311 199.772 158.071 197.842 160.371 196.502C162.691 195.142 165.481 194.462 168.741 194.462C171.941 194.462 174.591 195.012 176.691 196.112C178.791 197.212 180.341 198.722 181.341 200.642C182.341 202.542 182.781 204.702 182.661 207.122H173.631C173.591 206.202 173.461 205.412 173.241 204.752C173.021 204.072 172.701 203.522 172.281 203.102C171.881 202.662 171.381 202.342 170.781 202.142C170.201 201.922 169.521 201.812 168.741 201.812C166.641 201.812 165.081 202.582 164.061 204.122C163.041 205.642 162.531 207.982 162.531 211.142C162.531 214.582 163.101 217.052 164.241 218.552C165.381 220.032 166.991 220.822 169.071 220.922C169.891 220.962 170.671 220.832 171.411 220.532C172.151 220.232 172.751 219.732 173.211 219.032C173.671 218.312 173.891 217.372 173.871 216.212H182.781C182.841 218.632 182.331 220.762 181.251 222.602C180.171 224.422 178.581 225.842 176.481 226.862C174.401 227.882 171.871 228.392 168.891 228.392Z" fill="white"/>
<path d="M202.349 228.272C199.169 228.272 196.409 227.622 194.069 226.322C191.729 225.022 189.909 223.112 188.609 220.592C187.329 218.052 186.689 214.942 186.689 211.262C186.689 207.782 187.369 204.782 188.729 202.262C190.089 199.742 191.959 197.812 194.339 196.472C196.719 195.112 199.429 194.432 202.469 194.432C205.749 194.432 208.549 195.112 210.869 196.472C213.209 197.812 214.999 199.742 216.239 202.262C217.499 204.782 218.129 207.782 218.129 211.262C218.129 214.942 217.439 218.052 216.059 220.592C214.679 223.112 212.799 225.022 210.419 226.322C208.039 227.622 205.349 228.272 202.349 228.272ZM202.469 220.562C204.289 220.562 205.809 219.892 207.029 218.552C208.249 217.192 208.859 214.762 208.859 211.262C208.859 208.002 208.219 205.672 206.939 204.272C205.679 202.852 204.159 202.142 202.379 202.142C200.559 202.142 199.039 202.852 197.819 204.272C196.599 205.672 195.989 208.002 195.989 211.262C195.989 214.622 196.629 217.012 197.909 218.432C199.189 219.852 200.709 220.562 202.469 220.562Z" fill="white"/>
<path d="M224.031 227.822V180.962H233.391V227.822H224.031Z" fill="white"/>
</svg>
