<svg width="146" height="90" viewBox="0 0 146 90" fill="none" xmlns="http://www.w3.org/2000/svg">
<path d="M145.017 51.6816V86.4336C145.017 89.1144 141.952 90.4548 140.154 88.5559L97.6343 43.7002C97.5137 43.5691 97.3669 43.4644 97.2034 43.3927C97.0398 43.321 96.8631 43.284 96.6843 43.284C96.5056 43.284 96.3288 43.321 96.1653 43.3927C96.0017 43.4644 95.8549 43.5691 95.7344 43.7002L53.2109 88.5559C51.4301 90.4548 48.3657 89.1144 48.3657 86.4336V51.6816C48.3628 50.8946 48.661 50.1359 49.1999 49.5594L94.672 1.57277C94.9287 1.29638 95.2401 1.07581 95.5867 0.924953C95.9334 0.774094 96.3076 0.696213 96.686 0.696213C97.0644 0.696213 97.4387 0.774094 97.7853 0.924953C98.1319 1.07581 98.4433 1.29638 98.7 1.57277L144.182 49.5594C144.722 50.1352 145.021 50.8944 145.017 51.6816Z" fill="black"/>
<path d="M68.8462 21.0727L50.3645 1.57616C50.1091 1.29527 49.7973 1.07075 49.4493 0.917085C49.1012 0.763417 48.7246 0.684021 48.3437 0.684021C47.9629 0.684021 47.5862 0.763417 47.2382 0.917085C46.8901 1.07075 46.5783 1.29527 46.3229 1.57616L0.850821 49.556C0.311657 50.1337 0.0134687 50.8936 0.0166264 51.6817V86.4336C0.0166264 89.111 3.08101 90.4514 4.87879 88.5593L68.8462 21.0727Z" fill="black"/>
<path d="M96.6845 51.6816V86.4336C96.6845 89.1144 93.6201 90.4548 91.8223 88.5559L76.2109 72.0887L96.5176 50.6662C96.6287 50.9934 96.685 51.3364 96.6845 51.6816Z" fill="black"/>
</svg>
