<svg width="266" height="110" viewBox="0 0 266 110" fill="none" xmlns="http://www.w3.org/2000/svg">
<path d="M0 48.56V4.94H15.84L21.36 29.12L22.89 36.59H23.01L24.57 29.12L30 4.94H45.9V48.56H36.57V26.51L37.5 12.41H37.2L33.15 26.42L26.85 48.56H19.14L8.7 12.41H8.4L9.33 26.51V48.56H0Z" fill="black"/>
<path d="M61.9448 48.92C60.0848 48.92 58.3948 48.57 56.8748 47.87C55.3748 47.17 54.1848 46.14 53.3048 44.78C52.4248 43.42 51.9848 41.75 51.9848 39.77C51.9848 37.79 52.3848 36.16 53.1848 34.88C54.0048 33.6 55.1148 32.6 56.5148 31.88C57.9148 31.14 59.4948 30.59 61.2548 30.23C62.4348 29.99 63.6448 29.79 64.8848 29.63C66.1448 29.47 67.3248 29.34 68.4248 29.24C69.5448 29.14 70.4948 29.06 71.2748 29V28.1C71.2748 26.02 70.9248 24.56 70.2248 23.72C69.5448 22.88 68.3448 22.46 66.6248 22.46C65.5248 22.46 64.5948 22.61 63.8348 22.91C63.0948 23.21 62.5348 23.75 62.1548 24.53C61.7948 25.31 61.6248 26.42 61.6448 27.86H52.8248C52.5848 24.98 53.0348 22.61 54.1748 20.75C55.3148 18.87 56.9848 17.48 59.1848 16.58C61.3848 15.66 63.9648 15.2 66.9248 15.2C68.6448 15.2 70.3148 15.39 71.9348 15.77C73.5548 16.13 75.0048 16.76 76.2848 17.66C77.5648 18.54 78.5748 19.75 79.3148 21.29C80.0748 22.83 80.4548 24.78 80.4548 27.14V48.56H71.2148L71.2748 40.91C70.9148 43.11 70.0148 45 68.5748 46.58C67.1548 48.14 64.9448 48.92 61.9448 48.92ZM65.0348 42.74C66.0148 42.74 66.9448 42.56 67.8248 42.2C68.7248 41.82 69.4848 41.31 70.1048 40.67C70.7248 40.01 71.1148 39.28 71.2748 38.48V33.32C70.4748 33.44 69.6648 33.57 68.8448 33.71C68.0248 33.85 67.3048 34 66.6848 34.16C64.6848 34.6 63.3148 35.21 62.5748 35.99C61.8348 36.75 61.4648 37.75 61.4648 38.99C61.4648 39.77 61.5948 40.44 61.8548 41C62.1348 41.56 62.5448 41.99 63.0848 42.29C63.6248 42.59 64.2748 42.74 65.0348 42.74Z" fill="black"/>
<path d="M87.7692 48.56V15.8H96.1092L96.8892 28.64L96.3492 26.69C96.5292 24.97 96.8592 23.41 97.3392 22.01C97.8192 20.59 98.4392 19.37 99.1992 18.35C99.9592 17.33 100.869 16.54 101.929 15.98C103.009 15.42 104.239 15.14 105.619 15.14C106.019 15.14 106.419 15.16 106.819 15.2C107.239 15.24 107.609 15.31 107.929 15.41V25.1C107.249 24.92 106.589 24.8 105.949 24.74C105.329 24.66 104.709 24.62 104.089 24.62C102.989 24.62 101.989 24.72 101.089 24.92C100.209 25.12 99.4392 25.43 98.7792 25.85C98.1192 26.25 97.5692 26.77 97.1292 27.41V48.56H87.7692Z" fill="black"/>
<path d="M126.943 62.03C123.703 62.07 120.943 61.58 118.663 60.56C116.383 59.56 114.683 58.14 113.563 56.3C112.463 54.46 112.053 52.35 112.333 49.97H121.393C121.373 50.87 121.523 51.67 121.843 52.37C122.163 53.09 122.743 53.66 123.583 54.08C124.423 54.5 125.603 54.71 127.123 54.71C128.523 54.71 129.603 54.5 130.363 54.08C131.143 53.68 131.693 53.07 132.013 52.25C132.333 51.43 132.493 50.41 132.493 49.19V39.98C132.213 41.72 131.693 43.15 130.933 44.27C130.193 45.39 129.223 46.23 128.023 46.79C126.823 47.33 125.393 47.6 123.733 47.6C121.753 47.6 119.993 47.19 118.453 46.37C116.933 45.55 115.633 44.42 114.553 42.98C113.493 41.52 112.683 39.84 112.123 37.94C111.583 36.02 111.313 33.97 111.313 31.79C111.313 28.25 111.853 25.25 112.933 22.79C114.033 20.31 115.533 18.43 117.433 17.15C119.353 15.85 121.543 15.2 124.003 15.2C125.583 15.2 126.943 15.43 128.083 15.89C129.243 16.35 130.203 16.97 130.963 17.75C131.723 18.51 132.273 19.36 132.613 20.3L132.943 15.83H141.763V48.32C141.763 51.24 141.203 53.71 140.083 55.73C138.963 57.75 137.303 59.29 135.103 60.35C132.923 61.41 130.203 61.97 126.943 62.03ZM126.823 39.98C127.843 39.98 128.733 39.87 129.493 39.65C130.273 39.41 130.913 39.1 131.413 38.72C131.913 38.32 132.273 37.9 132.493 37.46V26.12C132.293 25.5 131.953 24.95 131.473 24.47C130.993 23.99 130.373 23.61 129.613 23.33C128.873 23.03 128.013 22.88 127.033 22.88C125.033 22.88 123.473 23.61 122.353 25.07C121.233 26.53 120.673 28.76 120.673 31.76C120.673 34.36 121.183 36.38 122.203 37.82C123.223 39.26 124.763 39.98 126.823 39.98Z" fill="black"/>
<path d="M149.378 48.56V15.8H158.678V48.56H149.378ZM154.058 12.08C152.498 12.08 151.168 11.54 150.068 10.46C148.968 9.36 148.418 7.96 148.418 6.26C148.418 4.56 148.968 3.18 150.068 2.12C151.168 1.04 152.498 0.5 154.058 0.5C155.598 0.5 156.918 1.04 158.018 2.12C159.118 3.18 159.668 4.56 159.668 6.26C159.668 7.96 159.118 9.36 158.018 10.46C156.918 11.54 155.598 12.08 154.058 12.08Z" fill="black"/>
<path d="M166.343 48.56V15.8H174.683L175.463 28.16L175.103 25.67C175.343 23.87 175.813 22.17 176.513 20.57C177.213 18.95 178.253 17.64 179.633 16.64C181.033 15.64 182.883 15.14 185.183 15.14C188.163 15.14 190.553 16.11 192.353 18.05C194.173 19.97 195.083 22.91 195.083 26.87V48.56H185.753V30.35C185.753 28.27 185.573 26.69 185.213 25.61C184.853 24.51 184.343 23.76 183.683 23.36C183.023 22.96 182.243 22.76 181.343 22.76C180.063 22.76 178.933 23.17 177.953 23.99C176.973 24.79 176.223 25.74 175.703 26.84V48.56H166.343Z" fill="black"/>
<path d="M216.436 49.01C213.116 49.01 210.286 48.35 207.946 47.03C205.606 45.71 203.816 43.8 202.576 41.3C201.336 38.78 200.716 35.74 200.716 32.18C200.716 28.5 201.376 25.4 202.696 22.88C204.016 20.34 205.876 18.42 208.276 17.12C210.676 15.82 213.486 15.17 216.706 15.17C219.826 15.17 222.446 15.76 224.566 16.94C226.706 18.12 228.326 19.86 229.426 22.16C230.526 24.46 231.076 27.29 231.076 30.65C231.076 31.07 231.056 31.56 231.016 32.12C230.996 32.66 230.966 33.28 230.926 33.98H209.866C210.086 36.7 210.746 38.69 211.846 39.95C212.946 41.19 214.486 41.81 216.466 41.81C218.106 41.81 219.346 41.45 220.186 40.73C221.046 40.01 221.556 39.06 221.716 37.88H230.656C230.476 40.14 229.786 42.11 228.586 43.79C227.406 45.45 225.786 46.74 223.726 47.66C221.666 48.56 219.236 49.01 216.436 49.01ZM213.676 28.73H222.106C222.026 26.63 221.516 25.06 220.576 24.02C219.656 22.98 218.236 22.46 216.316 22.46C214.056 22.46 212.406 23.27 211.366 24.89C210.326 26.49 209.796 28.77 209.776 31.73C209.936 30.59 210.326 29.81 210.946 29.39C211.566 28.95 212.476 28.73 213.676 28.73Z" fill="black"/>
<path d="M247.802 48.95C245.242 48.95 243.042 48.26 241.202 46.88C239.362 45.48 237.952 43.51 236.972 40.97C236.012 38.43 235.532 35.45 235.532 32.03C235.532 28.49 236.072 25.47 237.152 22.97C238.232 20.45 239.742 18.53 241.682 17.21C243.622 15.87 245.862 15.2 248.402 15.2C250.042 15.2 251.452 15.48 252.632 16.04C253.832 16.6 254.802 17.35 255.542 18.29C256.282 19.23 256.772 20.26 257.012 21.38L258.092 24.44L256.622 26.57C256.422 25.81 256.082 25.16 255.602 24.62C255.142 24.06 254.542 23.63 253.802 23.33C253.082 23.03 252.222 22.88 251.222 22.88C249.202 22.88 247.632 23.65 246.512 25.19C245.412 26.71 244.862 29.05 244.862 32.21C244.862 35.23 245.392 37.5 246.452 39.02C247.532 40.54 249.092 41.3 251.132 41.3C252.112 41.3 252.992 41.16 253.772 40.88C254.572 40.58 255.222 40.22 255.722 39.8C256.222 39.36 256.522 38.93 256.622 38.51L256.982 38.9L256.622 40.88C256.342 42.08 255.962 43.18 255.482 44.18C255.002 45.16 254.412 46.01 253.712 46.73C253.012 47.43 252.172 47.98 251.192 48.38C250.232 48.76 249.102 48.95 247.802 48.95ZM256.652 48.56L256.622 1.88H265.922V48.56H256.652Z" fill="black"/>
<path d="M13.05 94.07C11.77 94.07 10.8 93.74 10.14 93.08C9.5 92.4 9.06 91.35 8.82 89.93L7.41 88.01L9.51 86.3H14.49C16.13 86.3 17.49 86.06 18.57 85.58C19.65 85.1 20.46 84.35 21 83.33C21.54 82.29 21.81 80.94 21.81 79.28C21.81 76.72 21.16 75 19.86 74.12C18.58 73.24 16.75 72.8 14.37 72.8H9.33L6.75 64.94C7.53 64.94 8.46 64.94 9.54 64.94C10.64 64.94 11.72 64.94 12.78 64.94C13.86 64.94 14.74 64.94 15.42 64.94C20.7 64.94 24.71 66.05 27.45 68.27C30.21 70.49 31.59 74 31.59 78.8C31.59 80.82 31.3 82.75 30.72 84.59C30.16 86.41 29.25 88.04 27.99 89.48C26.73 90.9 25.07 92.02 23.01 92.84C20.97 93.66 18.46 94.07 15.48 94.07H13.05ZM0 108.56V64.94H9.51V108.56H0Z" fill="black"/>
<path d="M36.3825 108.56V75.8H44.7225L45.5025 88.64L44.9625 86.69C45.1425 84.97 45.4725 83.41 45.9525 82.01C46.4325 80.59 47.0525 79.37 47.8125 78.35C48.5725 77.33 49.4825 76.54 50.5425 75.98C51.6225 75.42 52.8525 75.14 54.2325 75.14C54.6325 75.14 55.0325 75.16 55.4325 75.2C55.8525 75.24 56.2225 75.31 56.5425 75.41V85.1C55.8625 84.92 55.2025 84.8 54.5625 84.74C53.9425 84.66 53.3225 84.62 52.7025 84.62C51.6025 84.62 50.6025 84.72 49.7025 84.92C48.8225 85.12 48.0525 85.43 47.3925 85.85C46.7325 86.25 46.1825 86.77 45.7425 87.41V108.56H36.3825Z" fill="black"/>
<path d="M75.435 109.01C72.255 109.01 69.495 108.36 67.155 107.06C64.815 105.76 62.995 103.85 61.695 101.33C60.415 98.79 59.775 95.68 59.775 92C59.775 88.52 60.455 85.52 61.815 83C63.175 80.48 65.045 78.55 67.425 77.21C69.805 75.85 72.515 75.17 75.555 75.17C78.835 75.17 81.635 75.85 83.955 77.21C86.295 78.55 88.085 80.48 89.325 83C90.585 85.52 91.215 88.52 91.215 92C91.215 95.68 90.525 98.79 89.145 101.33C87.765 103.85 85.885 105.76 83.505 107.06C81.125 108.36 78.435 109.01 75.435 109.01ZM75.555 101.3C77.375 101.3 78.895 100.63 80.115 99.29C81.335 97.93 81.945 95.5 81.945 92C81.945 88.74 81.305 86.41 80.025 85.01C78.765 83.59 77.245 82.88 75.465 82.88C73.645 82.88 72.125 83.59 70.905 85.01C69.685 86.41 69.075 88.74 69.075 92C69.075 95.36 69.715 97.75 70.995 99.17C72.275 100.59 73.795 101.3 75.555 101.3Z" fill="black"/>
<path d="M106.991 108.95C104.291 108.95 102.181 108.27 100.661 106.91C99.1612 105.53 98.4112 103.4 98.4112 100.52L98.3213 85.88C98.3213 85.12 98.5312 84.5 98.9512 84.02C99.3913 83.54 100.001 83.23 100.781 83.09L98.3213 77.12V76.13L100.031 66.44H107.621V97.64C107.621 99.04 107.791 100.01 108.131 100.55C108.491 101.09 109.171 101.36 110.171 101.36C111.171 101.36 112.001 101.34 112.661 101.3C113.341 101.26 113.981 101.19 114.581 101.09V108.44C113.861 108.7 112.781 108.85 111.341 108.89C109.921 108.93 108.471 108.95 106.991 108.95ZM94.8412 83.09V75.8H114.371V83.09H94.8412Z" fill="black"/>
<path d="M133.443 109.01C130.263 109.01 127.503 108.36 125.163 107.06C122.823 105.76 121.003 103.85 119.703 101.33C118.423 98.79 117.783 95.68 117.783 92C117.783 88.52 118.463 85.52 119.823 83C121.183 80.48 123.053 78.55 125.433 77.21C127.813 75.85 130.523 75.17 133.563 75.17C136.843 75.17 139.643 75.85 141.963 77.21C144.303 78.55 146.093 80.48 147.333 83C148.593 85.52 149.223 88.52 149.223 92C149.223 95.68 148.533 98.79 147.153 101.33C145.773 103.85 143.893 105.76 141.513 107.06C139.133 108.36 136.443 109.01 133.443 109.01ZM133.563 101.3C135.383 101.3 136.903 100.63 138.123 99.29C139.343 97.93 139.953 95.5 139.953 92C139.953 88.74 139.313 86.41 138.033 85.01C136.773 83.59 135.253 82.88 133.473 82.88C131.653 82.88 130.133 83.59 128.913 85.01C127.693 86.41 127.083 88.74 127.083 92C127.083 95.36 127.723 97.75 129.003 99.17C130.283 100.59 131.803 101.3 133.563 101.3Z" fill="black"/>
<path d="M168.891 109.13C165.451 109.13 162.571 108.42 160.251 107C157.951 105.56 156.211 103.56 155.031 101C153.871 98.42 153.291 95.43 153.291 92.03C153.291 88.55 153.891 85.55 155.091 83.03C156.311 80.51 158.071 78.58 160.371 77.24C162.691 75.88 165.481 75.2 168.741 75.2C171.941 75.2 174.591 75.75 176.691 76.85C178.791 77.95 180.341 79.46 181.341 81.38C182.341 83.28 182.781 85.44 182.661 87.86H173.631C173.591 86.94 173.461 86.15 173.241 85.49C173.021 84.81 172.701 84.26 172.281 83.84C171.881 83.4 171.381 83.08 170.781 82.88C170.201 82.66 169.521 82.55 168.741 82.55C166.641 82.55 165.081 83.32 164.061 84.86C163.041 86.38 162.531 88.72 162.531 91.88C162.531 95.32 163.101 97.79 164.241 99.29C165.381 100.77 166.991 101.56 169.071 101.66C169.891 101.7 170.671 101.57 171.411 101.27C172.151 100.97 172.751 100.47 173.211 99.77C173.671 99.05 173.891 98.11 173.871 96.95H182.781C182.841 99.37 182.331 101.5 181.251 103.34C180.171 105.16 178.581 106.58 176.481 107.6C174.401 108.62 171.871 109.13 168.891 109.13Z" fill="black"/>
<path d="M202.349 109.01C199.169 109.01 196.409 108.36 194.069 107.06C191.729 105.76 189.909 103.85 188.609 101.33C187.329 98.79 186.689 95.68 186.689 92C186.689 88.52 187.369 85.52 188.729 83C190.089 80.48 191.959 78.55 194.339 77.21C196.719 75.85 199.429 75.17 202.469 75.17C205.749 75.17 208.549 75.85 210.869 77.21C213.209 78.55 214.999 80.48 216.239 83C217.499 85.52 218.129 88.52 218.129 92C218.129 95.68 217.439 98.79 216.059 101.33C214.679 103.85 212.799 105.76 210.419 107.06C208.039 108.36 205.349 109.01 202.349 109.01ZM202.469 101.3C204.289 101.3 205.809 100.63 207.029 99.29C208.249 97.93 208.859 95.5 208.859 92C208.859 88.74 208.219 86.41 206.939 85.01C205.679 83.59 204.159 82.88 202.379 82.88C200.559 82.88 199.039 83.59 197.819 85.01C196.599 86.41 195.989 88.74 195.989 92C195.989 95.36 196.629 97.75 197.909 99.17C199.189 100.59 200.709 101.3 202.469 101.3Z" fill="black"/>
<path d="M224.031 108.56V61.7H233.391V108.56H224.031Z" fill="black"/>
</svg>
