<svg width="443" height="109" viewBox="0 0 443 109" fill="none" xmlns="http://www.w3.org/2000/svg">
<path d="M145 61.9526V96.7045C145 99.3853 141.936 100.726 140.138 98.8268L97.6177 53.9712C97.4971 53.84 97.3503 53.7353 97.1868 53.6636C97.0232 53.592 96.8465 53.555 96.6677 53.555C96.489 53.555 96.3122 53.592 96.1487 53.6636C95.9851 53.7353 95.8383 53.84 95.7178 53.9712L53.1943 98.8268C51.4135 100.726 48.3491 99.3853 48.3491 96.7045V61.9526C48.3462 61.1656 48.6444 60.4068 49.1833 59.8303L94.6554 11.8437C94.9121 11.5673 95.2235 11.3468 95.5701 11.1959C95.9168 11.045 96.291 10.9672 96.6694 10.9672C97.0478 10.9672 97.4221 11.045 97.7687 11.1959C98.1153 11.3468 98.4267 11.5673 98.6834 11.8437L144.166 59.8303C144.706 60.4061 145.004 61.1653 145 61.9526Z" fill="black"/>
<path d="M68.8296 31.3437L50.3479 11.8471C50.0925 11.5662 49.7807 11.3417 49.4327 11.188C49.0846 11.0344 48.708 10.955 48.3271 10.955C47.9463 10.955 47.5696 11.0344 47.2216 11.188C46.8735 11.3417 46.5617 11.5662 46.3063 11.8471L0.834219 59.8269C0.295055 60.4047 -0.00313282 61.1645 2.48242e-05 61.9526V96.7046C2.48242e-05 99.3819 3.06441 100.722 4.86219 98.8302L68.8296 31.3437Z" fill="black"/>
<path d="M96.6679 61.9526V96.7045C96.6679 99.3853 93.6035 100.726 91.8057 98.8268L76.1943 82.3597L96.501 60.9371C96.612 61.2643 96.6684 61.6073 96.6679 61.9526Z" fill="black"/>
<path d="M176.156 48.06V4.44H191.996L197.516 28.62L199.046 36.09H199.166L200.726 28.62L206.156 4.44H222.056V48.06H212.726V26.01L213.656 11.91H213.356L209.306 25.92L203.006 48.06H195.296L184.856 11.91H184.556L185.486 26.01V48.06H176.156Z" fill="black"/>
<path d="M238.101 48.42C236.241 48.42 234.551 48.07 233.031 47.37C231.531 46.67 230.341 45.64 229.461 44.28C228.581 42.92 228.141 41.25 228.141 39.27C228.141 37.29 228.541 35.66 229.341 34.38C230.161 33.1 231.271 32.1 232.671 31.38C234.071 30.64 235.651 30.09 237.411 29.73C238.591 29.49 239.801 29.29 241.041 29.13C242.301 28.97 243.481 28.84 244.581 28.74C245.701 28.64 246.651 28.56 247.431 28.5V27.6C247.431 25.52 247.081 24.06 246.381 23.22C245.701 22.38 244.501 21.96 242.781 21.96C241.681 21.96 240.751 22.11 239.991 22.41C239.251 22.71 238.691 23.25 238.311 24.03C237.951 24.81 237.781 25.92 237.801 27.36H228.981C228.741 24.48 229.191 22.11 230.331 20.25C231.471 18.37 233.141 16.98 235.341 16.08C237.541 15.16 240.121 14.7 243.081 14.7C244.801 14.7 246.471 14.89 248.091 15.27C249.711 15.63 251.161 16.26 252.441 17.16C253.721 18.04 254.731 19.25 255.471 20.79C256.231 22.33 256.611 24.28 256.611 26.64V48.06H247.371L247.431 40.41C247.071 42.61 246.171 44.5 244.731 46.08C243.311 47.64 241.101 48.42 238.101 48.42ZM241.191 42.24C242.171 42.24 243.101 42.06 243.981 41.7C244.881 41.32 245.641 40.81 246.261 40.17C246.881 39.51 247.271 38.78 247.431 37.98V32.82C246.631 32.94 245.821 33.07 245.001 33.21C244.181 33.35 243.461 33.5 242.841 33.66C240.841 34.1 239.471 34.71 238.731 35.49C237.991 36.25 237.621 37.25 237.621 38.49C237.621 39.27 237.751 39.94 238.011 40.5C238.291 41.06 238.701 41.49 239.241 41.79C239.781 42.09 240.431 42.24 241.191 42.24Z" fill="black"/>
<path d="M263.925 48.06V15.3H272.265L273.045 28.14L272.505 26.19C272.685 24.47 273.015 22.91 273.495 21.51C273.975 20.09 274.595 18.87 275.355 17.85C276.115 16.83 277.025 16.04 278.085 15.48C279.165 14.92 280.395 14.64 281.775 14.64C282.175 14.64 282.575 14.66 282.975 14.7C283.395 14.74 283.765 14.81 284.085 14.91V24.6C283.405 24.42 282.745 24.3 282.105 24.24C281.485 24.16 280.865 24.12 280.245 24.12C279.145 24.12 278.145 24.22 277.245 24.42C276.365 24.62 275.595 24.93 274.935 25.35C274.275 25.75 273.725 26.27 273.285 26.91V48.06H263.925Z" fill="black"/>
<path d="M303.099 61.53C299.859 61.57 297.099 61.08 294.819 60.06C292.539 59.06 290.839 57.64 289.719 55.8C288.619 53.96 288.209 51.85 288.489 49.47H297.549C297.529 50.37 297.679 51.17 297.999 51.87C298.319 52.59 298.899 53.16 299.739 53.58C300.579 54 301.759 54.21 303.279 54.21C304.679 54.21 305.759 54 306.519 53.58C307.299 53.18 307.849 52.57 308.169 51.75C308.489 50.93 308.649 49.91 308.649 48.69V39.48C308.369 41.22 307.849 42.65 307.089 43.77C306.349 44.89 305.379 45.73 304.179 46.29C302.979 46.83 301.549 47.1 299.889 47.1C297.909 47.1 296.149 46.69 294.609 45.87C293.089 45.05 291.789 43.92 290.709 42.48C289.649 41.02 288.839 39.34 288.279 37.44C287.739 35.52 287.469 33.47 287.469 31.29C287.469 27.75 288.009 24.75 289.089 22.29C290.189 19.81 291.689 17.93 293.589 16.65C295.509 15.35 297.699 14.7 300.159 14.7C301.739 14.7 303.099 14.93 304.239 15.39C305.399 15.85 306.359 16.47 307.119 17.25C307.879 18.01 308.429 18.86 308.769 19.8L309.099 15.33H317.919V47.82C317.919 50.74 317.359 53.21 316.239 55.23C315.119 57.25 313.459 58.79 311.259 59.85C309.079 60.91 306.359 61.47 303.099 61.53ZM302.979 39.48C303.999 39.48 304.889 39.37 305.649 39.15C306.429 38.91 307.069 38.6 307.569 38.22C308.069 37.82 308.429 37.4 308.649 36.96V25.62C308.449 25 308.109 24.45 307.629 23.97C307.149 23.49 306.529 23.11 305.769 22.83C305.029 22.53 304.169 22.38 303.189 22.38C301.189 22.38 299.629 23.11 298.509 24.57C297.389 26.03 296.829 28.26 296.829 31.26C296.829 33.86 297.339 35.88 298.359 37.32C299.379 38.76 300.919 39.48 302.979 39.48Z" fill="black"/>
<path d="M325.534 48.06V15.3H334.834V48.06H325.534ZM330.214 11.58C328.654 11.58 327.324 11.04 326.224 9.96C325.124 8.86 324.574 7.46 324.574 5.76C324.574 4.06 325.124 2.68 326.224 1.62C327.324 0.54 328.654 0 330.214 0C331.754 0 333.074 0.54 334.174 1.62C335.274 2.68 335.824 4.06 335.824 5.76C335.824 7.46 335.274 8.86 334.174 9.96C333.074 11.04 331.754 11.58 330.214 11.58Z" fill="black"/>
<path d="M342.499 48.06V15.3H350.839L351.619 27.66L351.259 25.17C351.499 23.37 351.969 21.67 352.669 20.07C353.369 18.45 354.409 17.14 355.789 16.14C357.189 15.14 359.039 14.64 361.339 14.64C364.319 14.64 366.709 15.61 368.509 17.55C370.329 19.47 371.239 22.41 371.239 26.37V48.06H361.909V29.85C361.909 27.77 361.729 26.19 361.369 25.11C361.009 24.01 360.499 23.26 359.839 22.86C359.179 22.46 358.399 22.26 357.499 22.26C356.219 22.26 355.089 22.67 354.109 23.49C353.129 24.29 352.379 25.24 351.859 26.34V48.06H342.499Z" fill="black"/>
<path d="M392.592 48.51C389.272 48.51 386.442 47.85 384.102 46.53C381.762 45.21 379.972 43.3 378.732 40.8C377.492 38.28 376.872 35.24 376.872 31.68C376.872 28 377.532 24.9 378.852 22.38C380.172 19.84 382.032 17.92 384.432 16.62C386.832 15.32 389.642 14.67 392.862 14.67C395.982 14.67 398.602 15.26 400.722 16.44C402.862 17.62 404.482 19.36 405.582 21.66C406.682 23.96 407.232 26.79 407.232 30.15C407.232 30.57 407.212 31.06 407.172 31.62C407.152 32.16 407.122 32.78 407.082 33.48H386.022C386.242 36.2 386.902 38.19 388.002 39.45C389.102 40.69 390.642 41.31 392.622 41.31C394.262 41.31 395.502 40.95 396.342 40.23C397.202 39.51 397.712 38.56 397.872 37.38H406.812C406.632 39.64 405.942 41.61 404.742 43.29C403.562 44.95 401.942 46.24 399.882 47.16C397.822 48.06 395.392 48.51 392.592 48.51ZM389.832 28.23H398.262C398.182 26.13 397.672 24.56 396.732 23.52C395.812 22.48 394.392 21.96 392.472 21.96C390.212 21.96 388.562 22.77 387.522 24.39C386.482 25.99 385.952 28.27 385.932 31.23C386.092 30.09 386.482 29.31 387.102 28.89C387.722 28.45 388.632 28.23 389.832 28.23Z" fill="black"/>
<path d="M423.958 48.45C421.398 48.45 419.198 47.76 417.358 46.38C415.518 44.98 414.108 43.01 413.128 40.47C412.168 37.93 411.688 34.95 411.688 31.53C411.688 27.99 412.228 24.97 413.308 22.47C414.388 19.95 415.898 18.03 417.838 16.71C419.778 15.37 422.018 14.7 424.558 14.7C426.198 14.7 427.608 14.98 428.788 15.54C429.988 16.1 430.958 16.85 431.698 17.79C432.438 18.73 432.928 19.76 433.168 20.88L434.248 23.94L432.778 26.07C432.578 25.31 432.238 24.66 431.758 24.12C431.298 23.56 430.698 23.13 429.958 22.83C429.238 22.53 428.378 22.38 427.378 22.38C425.358 22.38 423.788 23.15 422.668 24.69C421.568 26.21 421.018 28.55 421.018 31.71C421.018 34.73 421.548 37 422.608 38.52C423.688 40.04 425.248 40.8 427.288 40.8C428.268 40.8 429.148 40.66 429.928 40.38C430.728 40.08 431.378 39.72 431.878 39.3C432.378 38.86 432.678 38.43 432.778 38.01L433.138 38.4L432.778 40.38C432.498 41.58 432.118 42.68 431.638 43.68C431.158 44.66 430.568 45.51 429.868 46.23C429.168 46.93 428.328 47.48 427.348 47.88C426.388 48.26 425.258 48.45 423.958 48.45ZM432.808 48.06L432.778 1.38H442.078V48.06H432.808Z" fill="black"/>
<path d="M189.206 93.57C187.926 93.57 186.956 93.24 186.296 92.58C185.656 91.9 185.216 90.85 184.976 89.43L183.566 87.51L185.666 85.8H190.646C192.286 85.8 193.646 85.56 194.726 85.08C195.806 84.6 196.616 83.85 197.156 82.83C197.696 81.79 197.966 80.44 197.966 78.78C197.966 76.22 197.316 74.5 196.016 73.62C194.736 72.74 192.906 72.3 190.526 72.3H185.486L182.906 64.44C183.686 64.44 184.616 64.44 185.696 64.44C186.796 64.44 187.876 64.44 188.936 64.44C190.016 64.44 190.896 64.44 191.576 64.44C196.856 64.44 200.866 65.55 203.606 67.77C206.366 69.99 207.746 73.5 207.746 78.3C207.746 80.32 207.456 82.25 206.876 84.09C206.316 85.91 205.406 87.54 204.146 88.98C202.886 90.4 201.226 91.52 199.166 92.34C197.126 93.16 194.616 93.57 191.636 93.57H189.206ZM176.156 108.06V64.44H185.666V108.06H176.156Z" fill="black"/>
<path d="M212.538 108.06V75.3H220.878L221.658 88.14L221.118 86.19C221.298 84.47 221.628 82.91 222.108 81.51C222.588 80.09 223.208 78.87 223.968 77.85C224.728 76.83 225.638 76.04 226.698 75.48C227.778 74.92 229.008 74.64 230.388 74.64C230.788 74.64 231.188 74.66 231.588 74.7C232.008 74.74 232.378 74.81 232.698 74.91V84.6C232.018 84.42 231.358 84.3 230.718 84.24C230.098 84.16 229.478 84.12 228.858 84.12C227.758 84.12 226.758 84.22 225.858 84.42C224.978 84.62 224.208 84.93 223.548 85.35C222.888 85.75 222.338 86.27 221.898 86.91V108.06H212.538Z" fill="black"/>
<path d="M251.591 108.51C248.411 108.51 245.651 107.86 243.311 106.56C240.971 105.26 239.151 103.35 237.851 100.83C236.571 98.29 235.931 95.18 235.931 91.5C235.931 88.02 236.611 85.02 237.971 82.5C239.331 79.98 241.201 78.05 243.581 76.71C245.961 75.35 248.671 74.67 251.711 74.67C254.991 74.67 257.791 75.35 260.111 76.71C262.451 78.05 264.241 79.98 265.481 82.5C266.741 85.02 267.371 88.02 267.371 91.5C267.371 95.18 266.681 98.29 265.301 100.83C263.921 103.35 262.041 105.26 259.661 106.56C257.281 107.86 254.591 108.51 251.591 108.51ZM251.711 100.8C253.531 100.8 255.051 100.13 256.271 98.79C257.491 97.43 258.101 95 258.101 91.5C258.101 88.24 257.461 85.91 256.181 84.51C254.921 83.09 253.401 82.38 251.621 82.38C249.801 82.38 248.281 83.09 247.061 84.51C245.841 85.91 245.231 88.24 245.231 91.5C245.231 94.86 245.871 97.25 247.151 98.67C248.431 100.09 249.951 100.8 251.711 100.8Z" fill="black"/>
<path d="M283.147 108.45C280.447 108.45 278.337 107.77 276.817 106.41C275.317 105.03 274.567 102.9 274.567 100.02L274.477 85.38C274.477 84.62 274.687 84 275.107 83.52C275.547 83.04 276.157 82.73 276.937 82.59L274.477 76.62V75.63L276.187 65.94H283.777V97.14C283.777 98.54 283.947 99.51 284.287 100.05C284.647 100.59 285.327 100.86 286.327 100.86C287.327 100.86 288.157 100.84 288.817 100.8C289.497 100.76 290.137 100.69 290.737 100.59V107.94C290.017 108.2 288.937 108.35 287.497 108.39C286.077 108.43 284.627 108.45 283.147 108.45ZM270.997 82.59V75.3H290.527V82.59H270.997Z" fill="black"/>
<path d="M309.599 108.51C306.419 108.51 303.659 107.86 301.319 106.56C298.979 105.26 297.159 103.35 295.859 100.83C294.579 98.29 293.939 95.18 293.939 91.5C293.939 88.02 294.619 85.02 295.979 82.5C297.339 79.98 299.209 78.05 301.589 76.71C303.969 75.35 306.679 74.67 309.719 74.67C312.999 74.67 315.799 75.35 318.119 76.71C320.459 78.05 322.249 79.98 323.489 82.5C324.749 85.02 325.379 88.02 325.379 91.5C325.379 95.18 324.689 98.29 323.309 100.83C321.929 103.35 320.049 105.26 317.669 106.56C315.289 107.86 312.599 108.51 309.599 108.51ZM309.719 100.8C311.539 100.8 313.059 100.13 314.279 98.79C315.499 97.43 316.109 95 316.109 91.5C316.109 88.24 315.469 85.91 314.189 84.51C312.929 83.09 311.409 82.38 309.629 82.38C307.809 82.38 306.289 83.09 305.069 84.51C303.849 85.91 303.239 88.24 303.239 91.5C303.239 94.86 303.879 97.25 305.159 98.67C306.439 100.09 307.959 100.8 309.719 100.8Z" fill="black"/>
<path d="M345.046 108.63C341.606 108.63 338.726 107.92 336.406 106.5C334.106 105.06 332.366 103.06 331.186 100.5C330.026 97.92 329.446 94.93 329.446 91.53C329.446 88.05 330.046 85.05 331.246 82.53C332.466 80.01 334.226 78.08 336.526 76.74C338.846 75.38 341.636 74.7 344.896 74.7C348.096 74.7 350.746 75.25 352.846 76.35C354.946 77.45 356.496 78.96 357.496 80.88C358.496 82.78 358.936 84.94 358.816 87.36H349.786C349.746 86.44 349.616 85.65 349.396 84.99C349.176 84.31 348.856 83.76 348.436 83.34C348.036 82.9 347.536 82.58 346.936 82.38C346.356 82.16 345.676 82.05 344.896 82.05C342.796 82.05 341.236 82.82 340.216 84.36C339.196 85.88 338.686 88.22 338.686 91.38C338.686 94.82 339.256 97.29 340.396 98.79C341.536 100.27 343.146 101.06 345.226 101.16C346.046 101.2 346.826 101.07 347.566 100.77C348.306 100.47 348.906 99.97 349.366 99.27C349.826 98.55 350.046 97.61 350.026 96.45H358.936C358.996 98.87 358.486 101 357.406 102.84C356.326 104.66 354.736 106.08 352.636 107.1C350.556 108.12 348.026 108.63 345.046 108.63Z" fill="black"/>
<path d="M378.505 108.51C375.325 108.51 372.565 107.86 370.225 106.56C367.885 105.26 366.065 103.35 364.765 100.83C363.485 98.29 362.845 95.18 362.845 91.5C362.845 88.02 363.525 85.02 364.885 82.5C366.245 79.98 368.115 78.05 370.495 76.71C372.875 75.35 375.585 74.67 378.625 74.67C381.905 74.67 384.705 75.35 387.025 76.71C389.365 78.05 391.155 79.98 392.395 82.5C393.655 85.02 394.285 88.02 394.285 91.5C394.285 95.18 393.595 98.29 392.215 100.83C390.835 103.35 388.955 105.26 386.575 106.56C384.195 107.86 381.505 108.51 378.505 108.51ZM378.625 100.8C380.445 100.8 381.965 100.13 383.185 98.79C384.405 97.43 385.015 95 385.015 91.5C385.015 88.24 384.375 85.91 383.095 84.51C381.835 83.09 380.315 82.38 378.535 82.38C376.715 82.38 375.195 83.09 373.975 84.51C372.755 85.91 372.145 88.24 372.145 91.5C372.145 94.86 372.785 97.25 374.065 98.67C375.345 100.09 376.865 100.8 378.625 100.8Z" fill="black"/>
<path d="M400.187 108.06V61.2H409.547V108.06H400.187Z" fill="black"/>
</svg>
